<?xml version="1.0" encoding="utf-8"?>
<!-- Generator: Adobe Illustrator 22.1.0, SVG Export Plug-In . SVG Version: 6.00 Build 0)  -->
<svg version="1.1" id="Livello_1" xmlns="http://www.w3.org/2000/svg" xmlns:xlink="http://www.w3.org/1999/xlink" x="0px" y="0px"
	 viewBox="0 0 100 100" style="enable-background:new 0 0 100 100;" xml:space="preserve">
<style type="text/css">
	.st0{fill:none;stroke:#CFD6A4;stroke-width:3;stroke-miterlimit:10;}
</style>
<title>pesce</title>
<path class="st0" d="M88,50.6c-6-10.8-16-17.5-27.7-18.7c-5.9-7.4-24.2-9.3-25-9.4c-0.5,0-1,0.2-1.3,0.6s-0.4,1-0.2,1.5
	c1.6,4,3,8,4.1,12.2c-2.8,1.3-5.6,2.8-8.1,4.5c-4.1-6.5-12.4-6.6-12.8-6.6c-0.8,0-1.5,0.7-1.5,1.5l0,0c0,8.8,3.1,13.2,5.1,15.2
	c-2,2-5.1,6.4-5.1,15.2c0,0.8,0.7,1.5,1.5,1.5c0.4,0,8.7-0.1,12.8-6.6c3.6,2.4,7.5,4.4,11.5,6c-1,1.7-1.6,4.4-1.6,8.2
	c0,0.8,0.7,1.5,1.5,1.5l0,0c0.5,0,10.8-0.1,15.9-6.1c13-0.3,24.3-7.1,30.8-19C88.3,51.6,88.3,51,88,50.6z"/>
<circle class="st0" cx="68.5" cy="47.5" r="4"/>
</svg>
