<?xml version="1.0" encoding="utf-8"?>
<!-- Generator: Adobe Illustrator 22.1.0, SVG Export Plug-In . SVG Version: 6.00 Build 0)  -->
<svg version="1.1" id="Livello_1" xmlns="http://www.w3.org/2000/svg" xmlns:xlink="http://www.w3.org/1999/xlink" x="0px" y="0px"
	 viewBox="0 0 100 100" style="enable-background:new 0 0 100 100;" xml:space="preserve">
<style type="text/css">
	.st0{fill:none;stroke:#CFD6A4;stroke-width:3;stroke-linecap:round;stroke-linejoin:round;}
</style>
<title>senza lattosio</title>
<path class="st0" d="M64.1,47.6c0-0.1,0-0.2-0.1-0.2l-4.7-8.2v-2c0-1.2-1-2.1-2.1-2.1l0,0h-14c-1.2,0-2.1,0.9-2.1,2.1l0,0v1.9
	l-4.6,8.2c0,0.1-0.1,0.2-0.1,0.3v24.9c0,1.2,1,2.1,2.1,2.1H62c1.2,0,2.1-1,2.1-2.1V47.6L64.1,47.6z"/>
<polyline class="st0" points="53.8,74.3 53.8,47.8 59.5,39.3 "/>
<path class="st0" d="M64.1,47.5L64.1,47.5z"/>
<line class="st0" x1="41.4" y1="38.9" x2="59.1" y2="38.9"/>
<line class="st0" x1="30.3" y1="88" x2="70.7" y2="21"/>
<circle class="st0" cx="50" cy="53" r="33.5"/>
</svg>
