<?xml version="1.0" encoding="utf-8"?>
<!-- Generator: Adobe Illustrator 22.1.0, SVG Export Plug-In . SVG Version: 6.00 Build 0)  -->
<svg version="1.1" id="Livello_1" xmlns="http://www.w3.org/2000/svg" xmlns:xlink="http://www.w3.org/1999/xlink" x="0px" y="0px"
	 viewBox="0 0 100 100" style="enable-background:new 0 0 100 100;" xml:space="preserve">
<style type="text/css">
	.st0{fill:#CFD6A4;}
	.st1{fill:none;stroke:#CFD6A4;stroke-width:3;stroke-linecap:round;stroke-linejoin:round;}
</style>
<title>senza glutine</title>
<path class="st0" d="M65.6,52.1c-0.1-0.4-0.4-0.7-0.8-0.9c-0.6-0.2-1.1-0.3-1.7-0.4c2.7-2.9,3.7-7.1,2.5-10.9
	c-0.1-0.4-0.4-0.7-0.8-0.9c-2.3-0.7-4.7-0.7-7,0.1c0.2-0.9,0.3-1.8,0.3-2.8c0-4.2-2.3-8-5.9-9.9c-0.4-0.2-0.8-0.2-1.2,0
	c-3.7,1.9-6.1,5.8-6,10c0,0.9,0.1,1.9,0.3,2.8c-2.3-0.8-4.7-0.8-7-0.1c-0.4,0.1-0.7,0.5-0.8,0.9c-1.2,3.8-0.2,8,2.5,10.9
	c-0.6,0.1-1.2,0.2-1.7,0.4c-0.4,0.1-0.7,0.5-0.8,0.9c-1.2,4-0.1,8.3,2.8,11.2c2.1,2.1,4.9,3.3,7.8,3.3c0.6,0,1.2,0,1.8-0.2V75
	c0.2,0.7,0.9,1.2,1.6,1.3c0.7-0.1,1.2-0.6,1.3-1.3v-8.6c0.7,0.1,1.3,0.2,2,0.2c3,0,5.8-1.2,7.9-3.3C65.7,60.4,66.8,56.1,65.6,52.1z
	 M49.9,62.3c0,0.5-0.1,1-0.2,1.5c-4.7,1-9.2-2-10.3-6.6c-0.3-1.2-0.3-2.4,0-3.6c1.5-0.3,3-0.3,4.5,0.2l0.4,0.1c1.1,0.4,2.2,1.1,3,2
	c1.5,1.5,2.4,3.5,2.5,5.6L49.9,62.3z M49.9,50.2c0,0.5-0.1,1-0.2,1.5c-1.5,0.3-3,0.3-4.4-0.2c-0.2-0.1-0.4-0.1-0.6-0.2
	c-1.1-0.5-2.1-1.1-3-2c-2.1-2.1-3-5.1-2.3-7.9c2.9-0.6,5.9,0.2,7.9,2.3v0.1l0.3,0.4c1.3,1.4,2,3.3,2.1,5.2L49.9,50.2L49.9,50.2z
	 M51.5,43.6c-0.6-0.4-1.1-0.8-1.6-1.3l-0.2-0.2c-3.2-3.6-2.8-9.1,0.8-12.2c0.3-0.3,0.7-0.5,1-0.8c2.5,1.6,4,4.3,4,7.3
	c0,2-0.7,4-2,5.5c-0.2,0.2-0.4,0.4-0.6,0.6C52.4,42.9,52,43.3,51.5,43.6z M52.9,49.7c0-2,0.7-4,2-5.5c0.2-0.2,0.4-0.4,0.6-0.6
	c2.1-2.1,5-2.9,7.9-2.3c0.7,2.9-0.2,5.9-2.3,7.9c-0.8,0.9-1.8,1.5-2.9,2l-0.6,0.2c-1.4,0.4-3,0.5-4.4,0.2C53,51,52.9,50.4,52.9,49.7
	L52.9,49.7z M60.9,61.5c-2.1,2.1-5.1,3-7.9,2.3c-0.6-2.9,0.2-5.9,2.3-7.9c0.8-0.9,1.8-1.5,3-2l0.6-0.2c1.4-0.4,2.9-0.5,4.4-0.2
	C63.9,56.4,63,59.4,60.9,61.5z"/>
<line class="st1" x1="32.3" y1="85" x2="72.7" y2="18"/>
<circle class="st1" cx="52" cy="50" r="33.5"/>
</svg>
