<?xml version="1.0" encoding="utf-8"?>
<!-- Generator: Adobe Illustrator 22.1.0, SVG Export Plug-In . SVG Version: 6.00 Build 0)  -->
<svg version="1.1" id="Livello_1" xmlns="http://www.w3.org/2000/svg" xmlns:xlink="http://www.w3.org/1999/xlink" x="0px" y="0px"
	 viewBox="0 0 100 100" style="enable-background:new 0 0 100 100;" xml:space="preserve">
<style type="text/css">
	.st0{fill:none;stroke:#CFD6A4;stroke-width:3;stroke-miterlimit:10;}
	.st1{fill:none;stroke:#CFD6A4;stroke-width:3;stroke-linecap:round;stroke-linejoin:round;}
</style>
<title>latte</title>
<path class="st0" d="M72,35.1c0-0.1-0.1-0.3-0.1-0.4L64,20.9v-3.3c0-2-1.6-3.6-3.6-3.6l0,0H36.6c-2,0-3.6,1.6-3.6,3.6l0,0v3.3
	l-7.9,13.8C25,34.9,25,35.1,25,35.2v42.1c0,2,1.6,3.6,3.6,3.6l0,0h39.8c2,0,3.6-1.6,3.6-3.6l0,0V35.2C72,35.2,72,35.2,72,35.1z"/>
<polyline class="st1" points="54.5,80.5 54.5,35.5 64.1,21.1 "/>
<path class="st0" d="M72,35L72,35z"/>
<line class="st0" x1="33.5" y1="20.5" x2="63.5" y2="20.5"/>
</svg>
