<?xml version="1.0" encoding="utf-8"?>
<!-- Generator: Adobe Illustrator 22.1.0, SVG Export Plug-In . SVG Version: 6.00 Build 0)  -->
<svg version="1.1" id="Livello_1" xmlns="http://www.w3.org/2000/svg" xmlns:xlink="http://www.w3.org/1999/xlink" x="0px" y="0px"
	 viewBox="0 0 100 100" style="enable-background:new 0 0 100 100;" xml:space="preserve">
<style type="text/css">
	.st0{fill:none;stroke:#CFD6A4;stroke-width:3;stroke-miterlimit:10;}
	.st1{fill:none;stroke:#CFD6A4;stroke-width:3;stroke-linecap:round;stroke-linejoin:round;}
</style>
<title>noci</title>
<path class="st0" d="M79.7,36.6c-0.2-2.9-0.7-5.8-1.7-8.5l-0.2-0.7l-0.7-0.2c-2.8-0.9-5.6-1.5-8.5-1.6c-6.4-0.4-11.6,1.2-15.1,4.7
	c-2,2-3.6,4.4-4.5,7.1c-1.1,3.1-3.6,5.6-6.7,6.8c-2.7,1-5.1,2.5-7.1,4.5c-3.2,3.1-5.1,7.3-5.5,11.7c-0.7,7.7,4.9,14.5,12.6,15.3
	c0.5,0.1,1.1,0.1,1.6,0.1c0.4,0,0.8,0,1.1,0c4.4-0.4,8.6-2.3,11.6-5.5c2-2,3.5-4.4,4.5-7.1l0,0c1.1-3.1,3.6-5.6,6.7-6.7
	c2.7-1,5.1-2.5,7.1-4.5C78.6,48.2,80.2,43,79.7,36.6L79.7,36.6z"/>
<path class="st1" d="M77.7,27.4c-6.4-0.8-16.1,7.3-17.7,8.9s-6.5,11.3-7.3,12.1s-8.9,4.8-12.9,8.1s-5.6,15.3-5.6,15.3
	s14.5-4,16.1-8.1s4.8-12.1,6.4-12.1s12.1-4.8,14.5-8.9S77.7,27.4,77.7,27.4z"/>
<path class="st0" d="M36.3,47.5c0,0,2.7,12.9,20.5,21.8"/>
<path class="st0" d="M46.5,41.3c0,0,13,13.7,17.3,17.7"/>
<path class="st0" d="M52.8,31c0,0,12.8,3.7,21.7,20.6"/>
</svg>
