<?xml version="1.0" encoding="utf-8"?>
<!-- Generator: Adobe Illustrator 22.1.0, SVG Export Plug-In . SVG Version: 6.00 Build 0)  -->
<svg version="1.1" id="Livello_1" xmlns="http://www.w3.org/2000/svg" xmlns:xlink="http://www.w3.org/1999/xlink" x="0px" y="0px"
	 viewBox="0 0 100 100" style="enable-background:new 0 0 100 100;" xml:space="preserve">
<style type="text/css">
	.st0{fill:none;stroke:#CFD6A4;stroke-width:3;stroke-miterlimit:10;}
	.st1{fill:none;stroke:#CFD6A4;stroke-width:3;stroke-linecap:round;stroke-linejoin:round;}
</style>
<title>sesamo</title>
<path class="st0" d="M28.4,57.6c0,0-14.2-4.7-9.5-17.8c2.4-6.8,5.2-13.6,8.3-20.1c0,0,30.8,4.7,27.2,21.3S28.4,57.6,28.4,57.6z"/>
<path class="st0" d="M38.5,32.7c0,0,7.8,13.8,0,23.3"/>
<path class="st1" d="M53.6,68.7c0,0-4.1-8.3-0.2-14.3S66,40.6,71.6,36.6s6.5,14.5,6.3,20.9s-3.5,25.6-24.8,12.3
	c0,0,12.8-8.6,13.7-13.4"/>
</svg>
