<?xml version="1.0" encoding="utf-8"?>
<!-- Generator: Adobe Illustrator 22.1.0, SVG Export Plug-In . SVG Version: 6.00 Build 0)  -->
<svg version="1.1" id="Livello_1" xmlns="http://www.w3.org/2000/svg" xmlns:xlink="http://www.w3.org/1999/xlink" x="0px" y="0px"
	 viewBox="0 0 100 100" style="enable-background:new 0 0 100 100;" xml:space="preserve">
<style type="text/css">
	.st0{fill:none;stroke:#CFD6A4;stroke-width:3;stroke-linecap:round;stroke-linejoin:round;}
</style>
<title>vegetariano</title>
<path class="st0" d="M20.5,47.5h54l0,0l0,0c0,13.8-11.2,25-25,25l0,0h-4C31.7,72.5,20.5,61.3,20.5,47.5L20.5,47.5L20.5,47.5z"/>
<path class="st0" d="M51.4,45.7c-1.9-6.1,2.1-11.8,6.9-15.2c3.4-2.3,7.1-4.1,11-5.5s7.6-3.1,11.1-5.3c0.4-0.2,0.7-0.5,0.9-0.9
	c0.1-0.4-0.1-1-0.5-1c3.3,4.9,3.4,11.6,0.9,16.9C78.8,40,74.1,44,68.4,45.9c-5.7,1.8-11.7,2.2-17.5,1"/>
<path class="st0" d="M50,47.5c0,0,18.5-9,20.5-13"/>
<path class="st0" d="M43.8,47.5c-4.5-3.7-8.9-8.8-8.3-15c1-12,0-18,0-18s10,3,15,5c4.4,1.9,8.2,5.1,10.9,9"/>
<path class="st0" d="M63.4,47.1l-0.1,0.4"/>
<path class="st0" d="M44.5,34.5c0,0,9-1,5,10"/>
</svg>
